{"title":"Felony Fights Vol.1.DVDRIp.XviD-ReVoTT","uid":5129917,"size":742958134,"categoryP":"video","categoryS":"movies","magnet":"?xt=urn:btih:cdbabd3999f46774c178307c621ee96a8a2731a7&amp;dn=Felony+Fights+Vol.1.DVDRIp.XviD-ReVoTT&amp;tr=udp%3A%2F%2Ftracker.openbittorrent.com%3A80&amp;tr=udp%3A%2F%2Fopen.demonii.com%3A1337&amp;tr=udp%3A%2F%2Ftracker.coppersurfer.tk%3A6969&amp;tr=udp%3A%2F%2Fexodus.desync.com%3A6969","seeders":0,"leechers":1,"uploader":"rsnekr","files":3,"time":1256000168,"description":"Some of the most brutal hand to hand battles ever captured on video are collected on FELONY FIGHTS. The fistfights and street brawls seen here are between gangs, felony convicts, skinheads, thugs, and more. Each battle is real and completely uncut, with no rules, making for some of the most vicious and violent footage ever assembled. Also included are fights between felony women. Needless to say, FELONY FIGHTS is for mature audiences.\n\n\nFormat                           : AVI\n\nFormat/Info                      : Audio Video Interleave\n\nFile size                        : 700 MiB\n\nDuration                         : 39mn 15s\n\nOverall bit rate                 : 2 491 Kbps\n\nWriting application              : VirtualDubMod 1.5.4.1 (build 2178/release)\n\nWriting library                  : VirtualDubMod build 2178/release\n\n\n\nVideo\n\nID                               : 0\n\nFormat                           : MPEG-4 Visual\n\nFormat profile                   : Simple@L3\n\nFormat settings, BVOP            : Yes\n\nFormat settings, QPel            : No\n\nFormat settings, GMC             : No warppoints\n\nFormat settings, Matrix          : Custom\n\nCodec ID                         : XVID\n\nCodec ID/Hint                    : XviD\n\nDuration                         : 39mn 15s\n\nBit rate                         : 2 352 Kbps\n\nWidth                            : 512 pixels\n\nHeight                           : 384 pixels\n\nDisplay aspect ratio             : 4/3\n\nFrame rate                       : 29.970 fps\n\nResolution                       : 24 bits\n\nColorimetry                      : 4:2:0\n\nScan type                        : Progressive\n\nBits/(Pixel*Frame)               : 0.399\n\nStream size                      : 660 MiB (94%)\n\nWriting library                  : XviD 1.0.3 (UTC 2004-12-20)\n\n\n\nAudio\n\nID                               : 1\n\nFormat                           : MPEG Audio\n\nFormat version                   : Version 1\n\nFormat profile                   : Layer 3\n\nCodec ID                         : 55\n\nCodec ID/Hint                    : MP3\n\nDuration                         : 39mn 15s\n\nBit rate mode                    : Variable\n\nBit rate                         : 125 Kbps\n\nNominal bit rate                 : 128 Kbps\n\nChannel(s)                       : 2 channels\n\nSampling rate                    : 48.0 KHz\n\nResolution                       : 16 bits\n\nStream size                      : 35.2 MiB (5%)\n\nAlignment                        : Aligned on interleaves\n\nInterleave, duration             : 24 ms (0.72 video frame)\n\nInterleave, preload duration     : 146 ms\n\nWriting library                  : LAME3.96r\n\nEncoding settings                : -m j -V 4 -q 2 -lowpass 17.5 --abr 128\n\n","torrent":{"xt":"urn:btih:cdbabd3999f46774c178307c621ee96a8a2731a7","amp;dn":"Felony+Fights+Vol.1.DVDRIp.XviD-ReVoTT","amp;tr":["udp%3A%2F%2Ftracker.openbittorrent.com%3A80","udp%3A%2F%2Fopen.demonii.com%3A1337","udp%3A%2F%2Ftracker.coppersurfer.tk%3A6969","udp%3A%2F%2Fexodus.desync.com%3A6969"],"infoHash":"cdbabd3999f46774c178307c621ee96a8a2731a7","infoHashBuffer":{"type":"Buffer","data":[205,186,189,57,153,244,103,116,193,120,48,124,98,30,233,106,138,39,49,167]},"announce":[],"urlList":[]}}